<svg width="24" height="24" viewBox="0 0 24 24" fill="none" xmlns="http://www.w3.org/2000/svg">
<path fill-rule="evenodd" clip-rule="evenodd" d="M19.416 3.04771C18.8734 2.50527 18.1376 2.20055 17.3704 2.20055C16.6031 2.20055 15.8673 2.50527 15.3247 3.04771L14.6428 3.73057L19.417 8.50477L20.0979 7.82287C20.3667 7.55419 20.5798 7.23519 20.7253 6.88411C20.8707 6.53303 20.9456 6.15674 20.9456 5.77672C20.9456 5.39671 20.8707 5.02041 20.7253 4.66933C20.5798 4.31825 20.3667 3.99925 20.0979 3.73057L19.416 3.04771ZM18.0523 9.86855L13.2781 5.09435L4.5109 13.8625C4.31904 14.0544 4.18502 14.2963 4.12414 14.5608L3.13168 18.8575C3.0947 19.0171 3.09894 19.1834 3.14401 19.3408C3.18907 19.4982 3.27347 19.6416 3.38926 19.7574C3.50504 19.8731 3.6484 19.9575 3.80582 20.0026C3.96325 20.0477 4.12955 20.0519 4.28906 20.0149L8.58681 19.0234C8.85089 18.9624 9.09251 18.8284 9.28413 18.6367L18.0523 9.86855Z" fill="#1E123B"/>
</svg>
