<svg width="23" height="23" viewBox="0 0 23 23" fill="none" xmlns="http://www.w3.org/2000/svg">
<path d="M20.6108 7.09665L9.42279 18.2847C9.32534 18.3825 9.20955 18.46 9.08206 18.513C8.95457 18.5659 8.81788 18.5932 8.67983 18.5932C8.54179 18.5932 8.4051 18.5659 8.2776 18.513C8.15011 18.46 8.03432 18.3825 7.93688 18.2847L3.04212 13.3899C2.94455 13.2923 2.86716 13.1765 2.81435 13.049C2.76155 12.9216 2.73438 12.7849 2.73438 12.647C2.73437 12.509 2.76155 12.3724 2.81435 12.2449C2.86716 12.1174 2.94455 12.0016 3.04212 11.904C3.13968 11.8064 3.25551 11.729 3.38299 11.6762C3.51046 11.6234 3.64709 11.5963 3.78507 11.5963C3.92305 11.5963 4.05968 11.6234 4.18716 11.6762C4.31463 11.729 4.43046 11.8064 4.52803 11.904L8.68071 16.0567L19.1266 5.61249C19.3237 5.41545 19.5909 5.30475 19.8696 5.30475C20.1483 5.30475 20.4155 5.41545 20.6126 5.61249C20.8096 5.80953 20.9203 6.07678 20.9203 6.35545C20.9203 6.63411 20.8096 6.90136 20.6126 7.0984L20.6108 7.09665Z" fill="#FAFAFA"/>
</svg>
