<svg width="20" height="19" viewBox="0 0 20 19" fill="none" xmlns="http://www.w3.org/2000/svg">
<path d="M15.9167 16.2005L11.0557 11.3395C10.6699 11.6481 10.2262 11.8925 9.72467 12.0725C9.22314 12.2526 8.68946 12.3426 8.12363 12.3426C6.72191 12.3426 5.53572 11.857 4.56507 10.8858C3.59441 9.91464 3.10882 8.72845 3.10831 7.32725C3.10779 5.92605 3.59338 4.73986 4.56507 3.76869C5.53675 2.79751 6.72294 2.31193 8.12363 2.31193C9.52432 2.31193 10.7108 2.79751 11.683 3.76869C12.6552 4.73986 13.1405 5.92605 13.1389 7.32725C13.1389 7.89308 13.0489 8.42676 12.8689 8.92829C12.6889 9.42983 12.4445 9.87349 12.1359 10.2593L16.9969 15.1203L15.9167 16.2005ZM8.12363 10.7994C9.08811 10.7994 9.90805 10.462 10.5835 9.78707C11.2588 9.11219 11.5963 8.29225 11.5958 7.32725C11.5953 6.36225 11.2578 5.54257 10.5835 4.8682C9.90908 4.19383 9.08914 3.85613 8.12363 3.8551C7.15811 3.85407 6.33843 4.19177 5.66458 4.8682C4.99072 5.54462 4.65303 6.36431 4.65148 7.32725C4.64994 8.29019 4.98764 9.11013 5.66458 9.78707C6.34152 10.464 7.1612 10.8015 8.12363 10.7994Z" fill="#FCFCFC"/>
</svg>
