<svg width="24" height="25" viewBox="0 0 24 25" fill="none" xmlns="http://www.w3.org/2000/svg">
<path d="M19.5456 18.2244C19.7495 18.4282 19.864 18.7047 19.864 18.9929C19.864 19.2812 19.7495 19.5577 19.5456 19.7615C19.3418 19.9653 19.0653 20.0799 18.7771 20.0799C18.4888 20.0799 18.2123 19.9653 18.0085 19.7615L12.2677 14.0189L6.5251 19.7597C6.32126 19.9635 6.0448 20.078 5.75653 20.078C5.46826 20.078 5.19179 19.9635 4.98796 19.7597C4.78412 19.5559 4.6696 19.2794 4.6696 18.9911C4.6696 18.7028 4.78412 18.4264 4.98796 18.2225L10.7306 12.4817L4.98976 6.73915C4.78592 6.53531 4.67141 6.25884 4.67141 5.97057C4.67141 5.6823 4.78592 5.40584 4.98976 5.202C5.1936 4.99816 5.47007 4.88364 5.75834 4.88364C6.04661 4.88364 6.32307 4.99816 6.52691 5.202L12.2677 10.9446L18.0103 5.20109C18.2141 4.99726 18.4906 4.88274 18.7789 4.88274C19.0672 4.88274 19.3436 4.99726 19.5475 5.20109C19.7513 5.40493 19.8658 5.6814 19.8658 5.96967C19.8658 6.25794 19.7513 6.5344 19.5475 6.73824L13.8049 12.4817L19.5456 18.2244Z" fill="#1E123B"/>
</svg>
